<svg width="130" height="152" viewBox="0 0 130 152" fill="none" xmlns="http://www.w3.org/2000/svg">
<g filter="url(#filter0_d_3008_11431)">
<path d="M99.629 118L99.629 26H64.9998H30.3706V118C30.3706 118 50.1132 115.145 64.761 115.145C80.0456 115.145 99.629 118 99.629 118Z" fill="url(#paint0_linear_3008_11431)"/>
<path d="M77.4683 42.6582H84.4224C85.7316 42.6582 86.8636 42.8809 87.8186 43.3263C88.7735 43.7718 89.5128 44.3968 90.0365 45.2015C90.5602 45.9917 90.822 46.9185 90.822 47.9818C90.822 49.0451 90.5602 49.9862 90.0365 50.8053C89.5128 51.6099 88.7735 52.2349 87.8186 52.6804C86.8636 53.1258 85.7316 53.3485 84.4224 53.3485H81.8579V57.6591H77.4683V42.6582ZM83.7293 49.9216C84.6534 49.9216 85.3234 49.7563 85.7393 49.4259C86.1551 49.081 86.3631 48.5997 86.3631 47.9818C86.3631 47.5795 86.2706 47.2418 86.0858 46.9688C85.901 46.6814 85.616 46.4659 85.231 46.3222C84.8459 46.1642 84.3454 46.0851 83.7293 46.0851H81.8579V49.9216H83.7293Z" fill="white"/>
<path d="M56.7203 53.2838C56.3199 52.3211 56.1196 51.2794 56.1196 50.1586C56.1196 49.0379 56.3199 48.0033 56.7203 47.055C57.1362 46.0923 57.7215 45.2589 58.4762 44.5548C59.2309 43.8364 60.1165 43.2832 61.1331 42.8952C62.165 42.4929 63.2971 42.2917 64.5292 42.2917C65.7614 42.2917 66.8858 42.4929 67.9023 42.8952C68.9343 43.2832 69.8276 43.8364 70.5823 44.5548C71.337 45.2589 71.9146 46.0923 72.3151 47.055C72.7309 48.0033 72.9389 49.0379 72.9389 50.1586C72.9389 51.2794 72.7309 52.3211 72.3151 53.2838C71.9146 54.2321 71.337 55.0655 70.5823 55.784C69.8276 56.488 68.9343 57.0412 67.9023 57.4436C66.8858 57.8315 65.7614 58.0255 64.5292 58.0255C63.2971 58.0255 62.165 57.8315 61.1331 57.4436C60.1165 57.0412 59.2309 56.488 58.4762 55.784C57.7215 55.0655 57.1362 54.2321 56.7203 53.2838ZM68.4799 50.1586C68.4799 49.5264 68.3798 48.9516 68.1796 48.4344C67.9948 47.9027 67.7252 47.4501 67.371 47.0765C67.0321 46.7029 66.6162 46.4156 66.1234 46.2144C65.6459 46.0132 65.1145 45.9127 64.5292 45.9127C63.7591 45.9127 63.0737 46.0923 62.473 46.4515C61.8724 46.7963 61.4026 47.2921 61.0637 47.9387C60.7403 48.5709 60.5786 49.3109 60.5786 50.1586C60.5786 50.7908 60.671 51.3728 60.8558 51.9044C61.056 52.4217 61.3256 52.8671 61.6644 53.2407C62.0187 53.6143 62.4345 53.9017 62.912 54.1028C63.4049 54.304 63.944 54.4046 64.5292 54.4046C65.3148 54.4046 66.0002 54.2321 66.5854 53.8873C67.1861 53.5281 67.6482 53.0324 67.9716 52.4001C68.3105 51.7535 68.4799 51.0064 68.4799 50.1586Z" fill="white"/>
<path d="M43.5247 42.8737H47.9143V57.6591H43.5247V42.8737ZM52.7892 42.6582V46.1929H38.6499V42.6582H52.7892Z" fill="white"/>
<path d="M56.9899 99.2394H48.3204V75.9984L41.1973 77.7826V70.5083L56.9899 66.7568V99.2394Z" fill="white"/>
<path d="M62.7193 74.2375C63.8537 71.684 65.4451 69.7221 67.4934 68.352C69.5731 66.9507 72.0153 66.25 74.8198 66.25C77.6244 66.25 80.0508 66.9507 82.0991 68.352C84.1789 69.7221 85.7702 71.684 86.8731 74.2375C88.0075 76.791 88.5747 79.796 88.5747 83.2526C88.5747 86.7092 88.0075 89.7142 86.8731 92.2677C85.7702 94.7901 84.1789 96.7519 82.0991 98.1532C80.0508 99.5545 77.6244 100.255 74.8198 100.255C72.0153 100.255 69.5731 99.5545 67.4934 98.1532C65.4451 96.7519 63.8537 94.7901 62.7193 92.2677C61.6164 89.7142 61.0649 86.7092 61.0649 83.2526C61.0649 79.796 61.6164 76.791 62.7193 74.2375ZM74.8198 73.9105C73.2758 73.9105 72.0783 74.7202 71.2275 76.3394C70.3767 77.9276 69.9513 80.232 69.9513 83.2526C69.9513 86.2732 70.3767 88.5931 71.2275 90.2124C72.0783 91.8006 73.2758 92.5947 74.8198 92.5947C76.3639 92.5947 77.5614 91.8006 78.4122 90.2124C79.263 88.5931 79.6884 86.2732 79.6884 83.2526C79.6884 80.232 79.263 77.9276 78.4122 76.3394C77.5614 74.7202 76.3639 73.9105 74.8198 73.9105Z" fill="white"/>
</g>
<defs>
<filter id="filter0_d_3008_11431" x="0.370605" y="0" width="129.258" height="152" filterUnits="userSpaceOnUse" color-interpolation-filters="sRGB">
<feFlood flood-opacity="0" result="BackgroundImageFix"/>
<feColorMatrix in="SourceAlpha" type="matrix" values="0 0 0 0 0 0 0 0 0 0 0 0 0 0 0 0 0 0 127 0" result="hardAlpha"/>
<feOffset dy="4"/>
<feGaussianBlur stdDeviation="15"/>
<feComposite in2="hardAlpha" operator="out"/>
<feColorMatrix type="matrix" values="0 0 0 0 0 0 0 0 0 0 0 0 0 0 0 0 0 0 0.25 0"/>
<feBlend mode="normal" in2="BackgroundImageFix" result="effect1_dropShadow_3008_11431"/>
<feBlend mode="normal" in="SourceGraphic" in2="effect1_dropShadow_3008_11431" result="shape"/>
</filter>
<linearGradient id="paint0_linear_3008_11431" x1="99.6241" y1="72" x2="30.3755" y2="72" gradientUnits="userSpaceOnUse">
<stop stop-color="#E50914"/>
<stop offset="0.32" stop-color="#E50914"/>
<stop offset="1" stop-color="#FF2631"/>
</linearGradient>
</defs>
</svg>